# File generated by ImageToStl.com - Free Image and 3D model conversion tools

o obj1
v -0.74272156 -1.08519554 -0.39051276
v 0.74272156 -1.08519554 -0.39051276
v 0 -3.16811323 -0.39051256
v -1.86202419 -1.05935764 -0.35724276
v -0.04961811 -3.22752142 0.35724306
v -1.86202419 -1.05935764 0.35724294
v -0.8810606 -1 -0.35724279
v -1.84247279 -1 0.35724294
v -0.8810606 -1 0.35724297
v -0.74272156 -1.08519554 0.39051294
v 0 -3.16811323 0.39051303
v 0.74272156 -1.08519554 0.39051294
v 0.81189108 2.34760618 0.3572427
v 0.81189108 -0.9148044 -0.35724282
v 0.81189108 2.34760618 -0.35724306
v 0.8810606 -1 0.35724297
v 1.84247279 -1 -0.35724276
v 0.8810606 -1 -0.35724279
v -0.81189108 -0.9148044 -0.35724282
v -0.81189108 2.34760618 0.3572427
v -0.81189108 2.34760618 -0.35724306
v 1.86202419 -1.05935764 0.35724294
v 0.04961811 -3.22752142 -0.35724258
v 1.86202419 -1.05935764 -0.35724276
v 0.74272156 2.43280172 0.3572427
v 0.74272156 2.34760618 0.39051268
v 0.74272156 2.34760618 -0.39051303
v 0.74272156 2.43280172 -0.35724306
v 0.81189108 -0.9148044 0.35724294
v -0.74272156 2.43280172 0.3572427
v -0.74272156 2.34760618 0.39051268
v -0.74272156 2.43280172 -0.35724306
v -0.74272156 2.34760618 -0.39051303
v -0.81189108 -0.9148044 0.35724294
v -1.84247279 -1 -0.35724276
v -1.74114752 -1.08519554 -0.39051273
v -1.74114752 -1.08519554 0.39051291
v 1.84247279 -1 0.35724294
v 1.74114752 -1.08519554 0.39051291
v 1.74114752 -1.08519554 -0.39051273
v -0.04961812 -3.22752142 -0.35724258
v 0.04961812 -3.22752142 0.35724306
vn -0 -0 -1
vn -0.76725 -0.64135 0
vn 0 1 0
vn 0 0 1
vn 1 0 -0
vn -1 -0 0
vn 0.76725 -0.64135 0
vn 0.40888 0.33196 0.85007
vn 0.40888 0.33196 -0.85007
vn 0.15702 0.12748 0.97933
vn 0.15702 0.12748 -0.97933
vn -0.40888 0.33196 0.85007
vn -0.40888 0.33196 -0.85007
vn -0.15702 0.12748 0.97933
vn -0.15702 0.12748 -0.97933
vn -0.2482 0.08175 -0.96525
vn -0.2482 0.08175 0.96525
vn 0.2482 0.08175 0.96525
vn 0.2482 0.08175 -0.96525
vn 0 -0.48862 -0.8725
vn 0 -0.48862 0.8725
vn -0.43346 -0 -0.90117
vn 0 0.36376 -0.93149
vn 0.77635 0.63031 0
vn -0.77635 0.63031 0
vn 0.77635 0.63031 0
vn -0.77635 0.63031 0
vn 0.43346 0 0.90117
vn -0.43346 0 0.90117
vn 0 0.36376 0.93149
vn 0.43346 -0 -0.90117
vn -0.9498 0.31285 0
vn 0.9498 0.31285 0
vn -0 0.36376 -0.93149
vn -0 0.36376 0.93149
vn 0 0.36376 -0.93149
vn 0 0.36376 0.93149
vn 0 -1 0
vn -0.3071 -0.25671 0.9164
vn -0.3071 -0.25671 -0.9164
vn 0.3071 -0.25671 0.9164
vn 0.3071 -0.25671 -0.9164
vn -0 -0 -1
vn 0 -0 -1
vn -0 -0 -1
vn -0.76725 -0.64135 0
vn -0 0 1
vn -0 0 1
vn 0 0 1
vn 0.76725 -0.64135 -0
vn -0.43346 -0 -0.90117
vn 0.77635 0.63031 0
vn 0.43346 0 0.90117
vn -0.43346 0 0.90117
vn 0.43346 -0 -0.90117
vn -0 0.36376 -0.93149
vn -0 0.36376 0.93149
vn 0 0.36376 -0.93149
vn 0 0.36376 0.93149
vn -0.3071 -0.25671 0.9164
vn -0.3071 -0.25671 -0.9164
vn 0.3071 -0.25671 0.9164
vn 0.3071 -0.25671 -0.9164
f 1//1 2//1 3//1
f 4//2 5//2 6//2
f 7//3 8//3 9//3
f 10//4 11//4 12//4
f 13//5 14//5 15//5
f 16//3 17//3 18//3
f 19//6 20//6 21//6
f 22//7 23//7 24//7
f 25//8 26//8 13//8
f 27//9 28//9 15//9
f 16//10 29//10 12//10
f 18//11 2//11 14//11
f 30//12 20//12 31//12
f 21//13 32//13 33//13
f 9//14 10//14 34//14
f 1//15 7//15 19//15
f 4//16 35//16 36//16
f 6//17 37//17 8//17
f 22//18 38//18 39//18
f 24//19 40//19 17//19
f 23//20 41//20 3//20
f 42//21 11//21 5//21
f 33//22 19//22 21//22
f 33//23 28//23 27//23
f 15//24 25//24 13//24
f 9//25 19//25 7//25
f 18//26 29//26 16//26
f 32//27 20//27 30//27
f 26//28 29//28 13//28
f 31//29 34//29 10//29
f 26//30 30//30 31//30
f 27//31 14//31 2//31
f 6//32 35//32 4//32
f 24//33 38//33 22//33
f 36//34 7//34 1//34
f 37//35 9//35 8//35
f 18//36 40//36 2//36
f 16//37 39//37 38//37
f 42//38 41//38 23//38
f 5//39 37//39 6//39
f 36//40 41//40 4//40
f 39//41 42//41 22//41
f 40//42 23//42 3//42
f 30//3 28//3 32//3
f 1//43 33//43 27//43
f 2//44 40//44 3//44
f 1//43 27//43 2//43
f 3//45 36//45 1//45
f 4//46 41//46 5//46
f 7//3 35//3 8//3
f 12//47 26//47 31//47
f 10//48 37//48 11//48
f 12//47 31//47 10//47
f 11//49 39//49 12//49
f 13//5 29//5 14//5
f 16//3 38//3 17//3
f 19//6 34//6 20//6
f 22//50 42//50 23//50
f 33//51 1//51 19//51
f 33//23 32//23 28//23
f 15//24 28//24 25//24
f 9//25 34//25 19//25
f 18//52 14//52 29//52
f 32//27 21//27 20//27
f 26//53 12//53 29//53
f 31//54 20//54 34//54
f 26//30 25//30 30//30
f 27//55 15//55 14//55
f 6//32 8//32 35//32
f 24//33 17//33 38//33
f 36//56 35//56 7//56
f 37//57 10//57 9//57
f 18//58 17//58 40//58
f 16//59 12//59 39//59
f 42//38 5//38 41//38
f 5//60 11//60 37//60
f 36//61 3//61 41//61
f 39//62 11//62 42//62
f 40//63 24//63 23//63
f 30//3 25//3 28//3
# Vertices: 42, normals: 63, texture coordinates: 0, faces: 80

